<svg width="70" height="70" viewBox="0 0 70 70" fill="none" xmlns="http://www.w3.org/2000/svg">
<g clip-path="url(#clip0)">
<path d="M67.3163 51.3385L48.8468 32.7337L50.8966 22.6373C51.4256 22.8438 51.9879 22.9517 52.5556 22.9558H52.5696C55.1777 22.9866 57.3169 20.8974 57.3479 18.2893C57.3788 15.6812 55.2894 13.542 52.6813 13.5111C50.0732 13.4803 47.934 15.5695 47.9031 18.1776C47.8965 18.7357 47.9888 19.2905 48.176 19.8163L37.326 21.1405L19.6276 3.35C19.4105 3.12848 19.1141 3.00248 18.804 3C18.4977 3.0016 18.2044 3.12352 17.9873 3.3395L14.6786 6.6295C14.2232 7.08508 14.2232 7.82358 14.6786 8.27917L16.459 10.0852C9.56162 22.7681 11.8019 38.4741 21.9703 48.7228C22.0636 48.8121 22.1718 48.8843 22.29 48.9363C22.2165 49.3311 22.1781 49.7317 22.1756 50.1333V63.6667H8.17562C4.95562 63.6705 2.34608 66.28 2.34229 69.5V71.8333C2.34229 72.4776 2.86466 73 3.50895 73H57.1756C57.8199 73 58.3423 72.4776 58.3423 71.8333V69.5C58.3385 66.28 55.729 63.6705 52.509 63.6667H38.509V57.6688C40.7021 58.1288 42.9367 58.3633 45.1776 58.3688C50.5548 58.363 55.8464 57.0225 60.5776 54.4675L62.3673 56.2677C62.5844 56.4892 62.8808 56.6152 63.191 56.6177C63.4972 56.6161 63.7905 56.4941 64.0076 56.2782L67.3163 52.9882C67.7717 52.5326 67.7717 51.7941 67.3163 51.3385ZM50.9246 16.6348C51.8383 15.726 53.3157 15.7301 54.2244 16.6437C55.1332 17.5574 55.1291 19.0348 54.2155 19.9435C53.7781 20.3785 53.1864 20.6226 52.5695 20.6225H52.5625C51.2739 20.6158 50.2345 19.5658 50.2412 18.2771C50.2445 17.6602 50.4918 17.0699 50.9291 16.6348H50.9246ZM48.1783 24.301L46.8693 30.7445L44.298 28.158L48.1783 24.301ZM46.853 22.3282L42.653 26.5037L39.4038 23.237L46.853 22.3282ZM52.509 66C54.442 66 56.009 67.567 56.009 69.5V70.6667H4.67562V69.5C4.67562 67.567 6.2426 66 8.17562 66H52.509ZM36.1756 61.3333V63.6667H24.509V61.3333H36.1756ZM24.509 59V50.1333C24.509 47.303 27.1258 45 30.3423 45C33.5588 45 36.1756 47.303 36.1756 50.1333V59H24.509ZM38.509 55.29V50.1333C38.509 46.0162 34.8456 42.6667 30.3423 42.6667C27.4306 42.622 24.7079 44.1041 23.165 46.5738C14.2887 37.2249 12.2899 23.2875 18.1805 11.8207L58.872 52.7455C52.5886 55.9419 45.3857 56.8418 38.509 55.29ZM63.2038 53.7943L61.56 52.1412L18.7923 9.11567L17.1415 7.46133L18.7923 5.81633L36.15 23.272C36.1581 23.272 36.1628 23.2872 36.171 23.293L64.8593 52.1493L63.2038 53.7943Z" fill="white"/>
<path d="M30.3527 47.3333H30.3422C28.4091 47.3304 26.8398 48.895 26.8369 50.8281C26.834 52.7611 28.3986 54.3304 30.3317 54.3333H30.3422C32.2752 54.3362 33.8445 52.7716 33.8474 50.8386C33.8503 48.9055 32.2857 47.3362 30.3527 47.3333ZM31.1693 51.6605C30.9497 51.8789 30.6521 52.0012 30.3422 52C29.6979 51.9966 29.1783 51.4716 29.1816 50.8273C29.1832 50.5189 29.3069 50.2237 29.5255 50.0062C29.7426 49.7902 30.0359 49.6683 30.3422 49.6667C30.9865 49.67 31.5061 50.195 31.5027 50.8393C31.5011 51.1477 31.3774 51.4429 31.1588 51.6605H31.1693Z" fill="white"/>
</g>
<defs>
<clipPath id="clip0">
<rect width="70" height="70" fill="white"/>
</clipPath>
</defs>
</svg>
